<svg width="49" height="43" viewBox="0 0 49 43" fill="none" xmlns="http://www.w3.org/2000/svg">
<path d="M43.9613 21.2227H36.3817V15.1591C36.3817 11.8146 39.1009 9.09543 42.4454 9.09543H43.2033C44.4634 9.09543 45.4772 8.08167 45.4772 6.82157V2.27386C45.4772 1.01376 44.4634 0 43.2033 0H42.4454C34.07 0 27.2863 6.78368 27.2863 15.1591V37.8976C27.2863 40.4084 29.3233 42.4453 31.834 42.4453H43.9613C46.472 42.4453 48.509 40.4084 48.509 37.8976V25.7704C48.509 23.2597 46.472 21.2227 43.9613 21.2227ZM16.675 21.2227H9.09543V15.1591C9.09543 11.8146 11.8146 9.09543 15.1591 9.09543H15.917C17.1771 9.09543 18.1909 8.08167 18.1909 6.82157V2.27386C18.1909 1.01376 17.1771 0 15.917 0H15.1591C6.78368 0 0 6.78368 0 15.1591V37.8976C0 40.4084 2.037 42.4453 4.54772 42.4453H16.675C19.1857 42.4453 21.2227 40.4084 21.2227 37.8976V25.7704C21.2227 23.2597 19.1857 21.2227 16.675 21.2227Z" fill="#E6E6E6"/>
</svg>
